<svg xmlns="http://www.w3.org/2000/svg" xmlns:xlink="http://www.w3.org/1999/xlink" viewBox="0 0 30 30"><defs><style>.a{fill:none;}.b{clip-path:url(#a);}.c{fill:#626262;}</style><clipPath id="a"><path class="a" d="M0-35.311H30v30H0Z" transform="translate(0 35.311)"/></clipPath></defs><g transform="translate(0 0)"><g class="b" transform="translate(0 0)"><g transform="translate(0 0)"><path class="c" d="M-2.655,0a15.017,15.017,0,0,0-15,15,15.017,15.017,0,0,0,15,15,15.017,15.017,0,0,0,15-15,15.017,15.017,0,0,0-15-15m0,1.212A13.787,13.787,0,0,1,11.133,15,13.788,13.788,0,0,1-2.655,28.788,13.788,13.788,0,0,1-16.443,15,13.787,13.787,0,0,1-2.655,1.212" transform="translate(17.655 0)"/></g><g transform="translate(0 0)"><path class="c" d="M-2.655,0a15.017,15.017,0,0,0-15,15,15.017,15.017,0,0,0,15,15,15.017,15.017,0,0,0,15-15,15.017,15.017,0,0,0-15-15m0,1.212A13.787,13.787,0,0,1,11.133,15,13.788,13.788,0,0,1-2.655,28.788,13.788,13.788,0,0,1-16.443,15,13.787,13.787,0,0,1-2.655,1.212" transform="translate(17.655 0)"/></g><g transform="translate(6.497 7.037)"><path class="c" d="M0-3.538V-23.162a.36.36,0,0,1,.36-.36H16.217a.36.36,0,0,1,.36.36v20.01h-.72V-22.8H.72V-3.317L0-3.562v.025" transform="translate(0 23.522)"/></g><g transform="translate(12.529 22.947)"><path class="c" d="M0-.057A.319.319,0,0,1,.319-.376H4.143a.319.319,0,0,1,.319.319V5.828H3.823V.262H.637V5.828H0Z" transform="translate(0 0.376)"/></g><path class="c" d="M10.472-24.038h1.882v1.882H10.472Zm-.941-.471v2.822a.471.471,0,0,0,.47.471h2.822a.471.471,0,0,0,.471-.471v-2.822a.47.47,0,0,0-.471-.47H10a.47.47,0,0,0-.47.47" transform="translate(-1.434 33.757)"/><path class="c" d="M16.009-24.038H17.89v1.882H16.009Zm-.941-.471v2.822a.471.471,0,0,0,.47.471H18.36a.471.471,0,0,0,.472-.471v-2.822a.47.47,0,0,0-.472-.47H15.538a.47.47,0,0,0-.47.47" transform="translate(-2.266 33.757)"/><path class="c" d="M21.545-24.038h1.882v1.882H21.545Zm-.941-.471v2.822a.472.472,0,0,0,.471.471H23.9a.471.471,0,0,0,.471-.471v-2.822a.47.47,0,0,0-.471-.47H21.075a.47.47,0,0,0-.471.47" transform="translate(-3.099 33.757)"/><path class="c" d="M10.472-12.966h1.882v1.881H10.472Zm-.941-.472v2.824a.47.47,0,0,0,.47.469h2.822a.47.47,0,0,0,.471-.469v-2.824a.471.471,0,0,0-.471-.47H10a.471.471,0,0,0-.47.47" transform="translate(-1.434 32.092)"/><path class="c" d="M16.009-12.966H17.89v1.881H16.009Zm-.941-.472v2.824a.47.47,0,0,0,.47.469H18.36a.47.47,0,0,0,.472-.469v-2.824a.471.471,0,0,0-.472-.47H15.538a.471.471,0,0,0-.47.47" transform="translate(-2.266 32.092)"/><path class="c" d="M21.545-12.966h1.882v1.881H21.545Zm-.941-.472v2.824a.471.471,0,0,0,.471.469H23.9a.47.47,0,0,0,.471-.469v-2.824a.471.471,0,0,0-.471-.47H21.075a.472.472,0,0,0-.471.47" transform="translate(-3.099 32.092)"/><path class="c" d="M10.472-18.5h1.882v1.882H10.472Zm-.941-.471v2.823a.471.471,0,0,0,.47.471h2.822a.471.471,0,0,0,.471-.471v-2.823a.47.47,0,0,0-.471-.47H10a.47.47,0,0,0-.47.47" transform="translate(-1.434 32.924)"/><path class="c" d="M16.009-18.5H17.89v1.882H16.009Zm-.941-.471v2.823a.471.471,0,0,0,.47.471H18.36a.471.471,0,0,0,.472-.471v-2.823a.471.471,0,0,0-.472-.47H15.538a.47.47,0,0,0-.47.47" transform="translate(-2.266 32.924)"/><path class="c" d="M21.545-18.5h1.882v1.882H21.545Zm-.941-.471v2.823a.472.472,0,0,0,.471.471H23.9a.471.471,0,0,0,.471-.471v-2.823a.47.47,0,0,0-.471-.47H21.075a.471.471,0,0,0-.471.47" transform="translate(-3.099 32.924)"/><path class="c" d="M10.472-7.43h1.882v1.883H10.472ZM9.532-7.9v2.822a.471.471,0,0,0,.47.472h2.822a.471.471,0,0,0,.471-.472V-7.9a.471.471,0,0,0-.471-.471H10a.47.47,0,0,0-.47.471" transform="translate(-1.434 31.259)"/><path class="c" d="M21.545-7.43h1.882v1.883H21.545ZM20.6-7.9v2.822a.472.472,0,0,0,.471.472H23.9a.471.471,0,0,0,.471-.472V-7.9A.471.471,0,0,0,23.9-8.37H21.075A.471.471,0,0,0,20.6-7.9" transform="translate(-3.099 31.259)"/></g></g></svg>