<svg xmlns="http://www.w3.org/2000/svg" xmlns:xlink="http://www.w3.org/1999/xlink" viewBox="0 0 30 30"><defs><style>.a{fill:none;}.b{clip-path:url(#a);}.c{fill:#626262;}</style><clipPath id="a"><path class="a" d="M0-35H30V-5H0Z" transform="translate(0 35)"/></clipPath></defs><g class="b"><g transform="translate(0 0)"><path class="c" d="M-3.985-4.237l-.551.472V-8.358a5.322,5.322,0,0,0-3.076-4.819l-.325-.15.172-.315a5.847,5.847,0,0,0,.719-2.806A5.856,5.856,0,0,0-12.9-22.3a5.856,5.856,0,0,0-5.849,5.848,5.844,5.844,0,0,0,.555,2.481c.051.111.107.219.166.327l.172.315-.325.15a5.164,5.164,0,0,0-.669.371,5.329,5.329,0,0,0-2.408,4.447v4.593l-.552-.472a13.714,13.714,0,0,1-4.81-10.422A13.737,13.737,0,0,1-12.9-28.381,13.737,13.737,0,0,1,.827-14.659,13.669,13.669,0,0,1-.757-8.27,13.836,13.836,0,0,1-3.985-4.237M-17.466-16.448a4.576,4.576,0,0,1,4.571-4.57,4.576,4.576,0,0,1,4.571,4.57A4.576,4.576,0,0,1-12.9-11.877a4.577,4.577,0,0,1-4.571-4.571M-5.815-2.913l-.165.1c-.356.209-.715.4-1.069.566A13.559,13.559,0,0,1-12.9-.939,13.558,13.558,0,0,1-18.742-2.25c-.352-.166-.712-.357-1.068-.565l-.165-.1V-8.358A4.016,4.016,0,0,1-17.152-12.2l.183-.057.141.129A5.831,5.831,0,0,0-12.9-10.6a5.829,5.829,0,0,0,3.933-1.532l.141-.129.183.057A4.013,4.013,0,0,1-5.815-8.36ZM-12.9-29.66a15.017,15.017,0,0,0-15,15,15.016,15.016,0,0,0,15,15,15.017,15.017,0,0,0,15-15,15.018,15.018,0,0,0-15-15" transform="translate(27.895 29.66)"/></g><g transform="translate(0 0)"><path class="c" d="M-3.985-4.237l-.551.472V-8.358a5.322,5.322,0,0,0-3.076-4.819l-.325-.15.172-.315a5.847,5.847,0,0,0,.719-2.806A5.856,5.856,0,0,0-12.9-22.3a5.856,5.856,0,0,0-5.849,5.848,5.844,5.844,0,0,0,.555,2.481c.051.111.107.219.166.327l.172.315-.325.15a5.164,5.164,0,0,0-.669.371,5.329,5.329,0,0,0-2.408,4.447v4.593l-.552-.472a13.714,13.714,0,0,1-4.81-10.422A13.737,13.737,0,0,1-12.9-28.381,13.737,13.737,0,0,1,.827-14.659,13.669,13.669,0,0,1-.757-8.27,13.836,13.836,0,0,1-3.985-4.237M-17.466-16.448a4.576,4.576,0,0,1,4.571-4.57,4.576,4.576,0,0,1,4.571,4.57A4.576,4.576,0,0,1-12.9-11.877a4.577,4.577,0,0,1-4.571-4.571M-5.815-2.913l-.165.1c-.356.209-.715.4-1.069.566A13.559,13.559,0,0,1-12.9-.939,13.558,13.558,0,0,1-18.742-2.25c-.352-.166-.712-.357-1.068-.565l-.165-.1V-8.358A4.016,4.016,0,0,1-17.152-12.2l.183-.057.141.129A5.831,5.831,0,0,0-12.9-10.6a5.829,5.829,0,0,0,3.933-1.532l.141-.129.183.057A4.013,4.013,0,0,1-5.815-8.36ZM-12.9-29.66a15.017,15.017,0,0,0-15,15,15.016,15.016,0,0,0,15,15,15.017,15.017,0,0,0,15-15,15.018,15.018,0,0,0-15-15" transform="translate(27.895 29.66)"/></g></g></svg>