<svg id="Layer_1" data-name="Layer 1" xmlns="http://www.w3.org/2000/svg" xmlns:xlink="http://www.w3.org/1999/xlink" viewBox="0 0 195.17 51"><defs><style>.cls-1{fill:none;}.cls-2{fill:#a01626;}.cls-3{fill:url(#New_Pattern);}.cls-4{fill:url(#New_Pattern-3);}.cls-5{fill:url(#New_Pattern-5);}.cls-6{fill:#fff;}</style><pattern id="New_Pattern" data-name="New Pattern" width="196" height="135" patternTransform="translate(95.32 608.65) scale(3.41 2.72)" patternUnits="userSpaceOnUse" viewBox="0 0 196 135"><rect class="cls-1" width="196" height="135"/><rect class="cls-2" x="98" y="90" width="196" height="90"/><rect class="cls-2" x="-98" y="90" width="196" height="90"/><rect class="cls-2" y="22.5" width="196" height="90"/><rect class="cls-2" x="98" y="-45" width="196" height="90"/><rect class="cls-2" x="-98" y="-45" width="196" height="90"/></pattern><pattern id="New_Pattern-3" data-name="New Pattern" width="196" height="135" patternTransform="translate(1211.58 -117.96) scale(2.62 2.97)" patternUnits="userSpaceOnUse" viewBox="0 0 196 135"><rect class="cls-1" width="196" height="135"/><rect class="cls-2" x="98" y="90" width="196" height="90"/><rect class="cls-2" x="-98" y="90" width="196" height="90"/><rect class="cls-2" y="22.5" width="196" height="90"/><rect class="cls-2" x="98" y="-45" width="196" height="90"/><rect class="cls-2" x="-98" y="-45" width="196" height="90"/></pattern><pattern id="New_Pattern-5" data-name="New Pattern" width="196" height="135" patternTransform="translate(95.32 608.78) scale(3.41 2.72)" patternUnits="userSpaceOnUse" viewBox="0 0 196 135"><rect class="cls-1" width="196" height="135"/><rect class="cls-2" x="98" y="90" width="196" height="90"/><rect class="cls-2" x="-98" y="90" width="196" height="90"/><rect class="cls-2" y="22.5" width="196" height="90"/><rect class="cls-2" x="98" y="-45" width="196" height="90"/><rect class="cls-2" x="-98" y="-45" width="196" height="90"/></pattern></defs><title>LOGO</title><path class="cls-3" d="M115.15,6.1h-6.57V24.91h6.57c6.72,0,9.64-2.84,9.64-9.47S122,6.1,115.15,6.1Zm5.14,15.15a4.08,4.08,0,0,1-1.51.94,10,10,0,0,1-3.63.45h-3.8V8.37h3.8c1.89,0,3.63.13,4.9,1.08s1.9,2.71,1.9,6C122,18.28,121.39,20.18,120.29,21.25Zm-5.14,5.11h-6.57V45.17h6.57c6.88,0,9.64-2.84,9.64-9.34S121.87,26.36,115.15,26.36Zm4.9,15.53c-1.27.94-3,1.07-4.9,1.07h-3.8V28.63h3.8c1.89,0,3.55.13,4.82,1.07s2,2.78,2,6.13S121.23,40.94,120.05,41.89Z"/><path class="cls-4" d="M125.43,25.67a6.4,6.4,0,0,0,.63-.64c2.29-2.2,3.4-5.36,3.4-9.59,0-8.33-4.51-13.06-14.31-13.06H71.48v0H7a4.48,4.48,0,0,0-4.2,4.69V44.23A4.48,4.48,0,0,0,7,48.92h96.91v0h11.23c9.8,0,14.31-4.67,14.31-13.06,0-4.23-1.11-7.39-3.4-9.6A4,4,0,0,0,125.43,25.67Zm-10.28,21H103.92V45.17h2.77V6.1h-2.77V4.65h11.23c7.9,0,11.46,3.41,11.46,10.79,0,5.49-2,8.84-6.09,10.16a10.26,10.26,0,0,1,3.4,2c1.82,1.83,2.69,4.55,2.69,8.21C126.61,43.21,123.05,46.68,115.15,46.68Z"/><path class="cls-5" d="M161.32,35.64c0,4.16-1.1,7.32-3.32,9.53a11.3,11.3,0,0,1-3.71,2.46,16.83,16.83,0,0,1-6.8,1.26c-5.7,0-8.86-2-10.52-3.72-2.22-2.21-3.32-5.37-3.32-9.53V15.57c0-4.1,1.1-7.26,3.32-9.53,1.66-1.7,4.82-3.66,10.52-3.66S156.34,4.34,158,6c2.22,2.27,3.32,5.43,3.32,9.53Zm-2.77-20.07c0-7.13-3.79-11-11.06-11s-11.07,3.85-11.07,11V35.64c0,7.13,3.87,11,11.07,11s11.06-3.91,11.06-11Zm-1.89,20.07c0,6.37-3.09,9.53-9.17,9.53s-9.18-3.16-9.18-9.53V15.57q0-4.92,2.37-7.2c1.43-1.51,3.72-2.27,6.81-2.27s5.37.76,6.8,2.27q2.37,2.28,2.37,7.2Zm-2.77-20.07c0-3.6-1-5.49-2.37-6.37a7.21,7.21,0,0,0-4-.89,7,7,0,0,0-4,.89c-1.34.88-2.37,2.77-2.37,6.37V35.64c0,3.72,1,5.49,2.37,6.37a7,7,0,0,0,4,1,7.31,7.31,0,0,0,4-1c1.34-.88,2.37-2.65,2.37-6.37Z"/><path class="cls-5" d="M192.71,49h-2.84V35.26a8.93,8.93,0,0,0-3.4-7.38,12.43,12.43,0,0,0-3.33-1.71q6.65-2,6.65-10.41c0-7.51-3.72-11-12-11h-12.1V2.51h12.1c10,0,14.78,4.6,14.78,13.25,0,4.29-1.18,7.57-3.48,9.78a1.59,1.59,0,0,0-.31.32,2.16,2.16,0,0,1-.48.31,11,11,0,0,1,4.43,9.09Zm-27-42.79h2.77V49h-2.77Zm4.67,19.12V6.23h7.43c7.19,0,10.12,2.78,10.12,9.53s-2.93,9.59-10.12,9.59ZM188.05,49H185.2V35.26c0-4.1-2.45-6.12-7.43-6.12H173.1V49h-2.76V26.87h7.43c6.56,0,10.28,3,10.28,8.39ZM173.1,8.5V23.14h4.67a10.8,10.8,0,0,0,4.19-.57,9.37,9.37,0,0,0,1.42-.88c1.19-1.2,1.74-3.15,1.74-5.93,0-3.09-.63-4.92-1.82-6s-3.08-1.26-5.53-1.26Z"/><path class="cls-6" d="M7.3,45.66V5.31H9.57V43.39H25.21v2.27Z"/><path class="cls-6" d="M30.63,12.77a2.18,2.18,0,0,1,.67,1.59A2.21,2.21,0,0,1,30.63,16a2.24,2.24,0,0,1-1.6.65,2.2,2.2,0,0,1-1.6-.65,2.17,2.17,0,0,1-.67-1.62,2.14,2.14,0,0,1,.67-1.59,2.2,2.2,0,0,1,1.6-.65A2.24,2.24,0,0,1,30.63,12.77Zm-.47,8.12V45.66H27.89V20.89Z"/><path class="cls-6" d="M34.36,5.31h2.27V24.37a15.56,15.56,0,0,1,1.43-1.66,13.85,13.85,0,0,1,19.59,0,13.38,13.38,0,0,1,4,9.81A13.83,13.83,0,0,1,47.85,46.36a13.33,13.33,0,0,1-9.79-4.06,14.64,14.64,0,0,1-1.43-1.66v5H34.36Zm2.27,24.84v4.74a11.49,11.49,0,0,0,11.22,9A11.44,11.44,0,0,0,59.3,32.52,11.45,11.45,0,0,0,47.85,21.07a11.48,11.48,0,0,0-11.22,9.08Z"/><path class="cls-6" d="M64.76,20.89H67v4.52a13.39,13.39,0,0,1,1.64-1.94,9.4,9.4,0,0,1,6.15-3.16v2.47a7,7,0,0,0-4.44,2.4A10.9,10.9,0,0,0,67,32.87V45.66H64.76Z"/><path class="cls-6" d="M80.6,41a10.93,10.93,0,0,0,7.62,2.92,11.07,11.07,0,0,0,8.1-3.35c.28-.29.55-.58.8-.88l2.4.85a14,14,0,0,1-11.3,5.8,13.3,13.3,0,0,1-9.78-4.06,13.34,13.34,0,0,1-4.07-9.81,13.34,13.34,0,0,1,4.07-9.78A13.9,13.9,0,0,1,96.82,21.6c.4.34.81.71,1.21,1.11l.43.45-1.72,1.72ZM95.08,23.34A11.43,11.43,0,0,0,76.8,32.49a10.87,10.87,0,0,0,2.27,6.86Z"/></svg>