<svg xmlns="http://www.w3.org/2000/svg" viewBox="0 0 23.4 21.9"><defs><style>.a{fill:#636363;}</style></defs><path class="a" d="M22.9.8H19.8A5.449,5.449,0,0,0,16.7,0a5.686,5.686,0,0,0-3.1.8h-4a5.329,5.329,0,0,0-3-.8A5.938,5.938,0,0,0,3.5.8H.4a.43.43,0,0,0-.4.4V21.5a.43.43,0,0,0,.4.4H23a.43.43,0,0,0,.4-.4V1.2C23.3,1,23.2.8,22.9.8ZM16.7.7c1.9,0,3.4.9,3.4,1.9s-1.6,1.9-3.4,1.9c-1.9,0-3.4-.9-3.4-1.9S14.9.7,16.7.7ZM13.4,4.2a5.137,5.137,0,0,0,3.4,1.1,4.954,4.954,0,0,0,3.4-1.1V5c0,.6-.5,1.1-1.4,1.5a6.648,6.648,0,0,0-2.1-.3,7.106,7.106,0,0,0-2.1.3c-.8-.3-1.4-.9-1.4-1.5V4.2Zm3.3,6.4c-1.9,0-3.4-.9-3.4-1.9s1.6-1.9,3.4-1.9c1.9,0,3.4.9,3.4,1.9S18.6,10.6,16.7,10.6Zm3.5-.3V11c0,1-1.6,1.9-3.4,1.9-1.9,0-3.4-.9-3.4-1.9v-.8a5.137,5.137,0,0,0,3.4,1.1A5.107,5.107,0,0,0,20.2,10.3ZM6.6.7C8.5.7,10,1.6,10,2.6S8.4,4.5,6.6,4.5,3.2,3.6,3.2,2.6,4.7.7,6.6.7ZM3.2,4.2A5.137,5.137,0,0,0,6.6,5.3,5.137,5.137,0,0,0,10,4.2V5c0,.6-.5,1.1-1.4,1.5a4.477,4.477,0,0,0-2-.4,4.918,4.918,0,0,0-2.1.4A2.01,2.01,0,0,1,3.2,4.9Zm3.4,6.4c-1.9,0-3.4-.9-3.4-1.9S4.8,6.8,6.6,6.8,10,7.7,10,8.7,8.4,10.6,6.6,10.6Zm3.3-.3V11c0,1-1.6,1.9-3.4,1.9S3.1,12.1,3.1,11v-.8a5.137,5.137,0,0,0,3.4,1.1A4.351,4.351,0,0,0,9.9,10.3ZM22.6,21.1H.8V15.9H22.6v5.2Zm0-6H.8V1.6h2a1.929,1.929,0,0,0-.3,1V4.9A2.277,2.277,0,0,0,3.8,6.8,2.211,2.211,0,0,0,2.4,8.7V11c0,1.5,1.8,2.7,4.2,2.7s4.2-1.2,4.2-2.7V8.7h0A2.277,2.277,0,0,0,9.5,6.8a2.277,2.277,0,0,0,1.3-1.9V2.6h0a1.689,1.689,0,0,0-.3-1H13a1.929,1.929,0,0,0-.3,1V4.9A2.277,2.277,0,0,0,14,6.8a2.277,2.277,0,0,0-1.3,1.9V11c0,1.5,1.8,2.7,4.2,2.7S21,12.5,21,11V8.7a2.277,2.277,0,0,0-1.3-1.9A2.277,2.277,0,0,0,21,4.9V2.6a1.689,1.689,0,0,0-.3-1h2V15.1Z"/></svg>