<svg xmlns="http://www.w3.org/2000/svg" viewBox="0 0 19.939 19.097"><defs><style>.a{fill:#626262;}</style></defs><g transform="translate(0)"><rect class="a" width="10.037" height="1.075" transform="translate(9.185 9.011)"/><path class="a" d="M2.877,19.1h8.63a2.956,2.956,0,0,0,2.877-2.926v-3.7H13.52v3.7a2,2,0,0,1-2.014,2H2.877a2,2,0,0,1-2.014-2V2.926a2,2,0,0,1,2.014-2h8.63a2,2,0,0,1,2.014,2v3.7h.863v-3.7A2.956,2.956,0,0,0,11.507,0H2.877A2.956,2.956,0,0,0,0,2.926v13.4A2.929,2.929,0,0,0,2.877,19.1Z" transform="translate(0)"/><path class="a" d="M11.4,11.886l-.9-.9,3.226-3.047L10.5,4.717,11.4,4,15.16,7.943Z" transform="translate(4.779 1.605)"/></g></svg>