<svg xmlns="http://www.w3.org/2000/svg" viewBox="0 0 18.324 18.324"><defs><style>.a{fill:#636363;}.b{fill:none;stroke:#636363;stroke-miterlimit:10;}</style></defs><path class="a" d="M10.864,12.9a3.377,3.377,0,0,1-2.2-.791,3.333,3.333,0,0,1-.879-1.759h4.4V9.737H7.7V8.945h4.4v-.7H7.874a2.669,2.669,0,0,1,.967-1.671,2.968,2.968,0,0,1,2.023-.7,4.784,4.784,0,0,1,1.759.352l.352-.879a5.327,5.327,0,0,0-2.023-.44A4.569,4.569,0,0,0,7.874,6.043a3.578,3.578,0,0,0-1.319,2.2H5.5v.7h.879v.791H5.5v.616h.967a3.792,3.792,0,0,0,1.143,2.286,4.252,4.252,0,0,0,3.166,1.143,4.581,4.581,0,0,0,2.286-.528l-.264-.879A3.889,3.889,0,0,1,10.864,12.9Z" transform="translate(-0.603 -0.531)"/><rect class="b" width="17.324" height="17.324" transform="translate(0.5 0.5)"/></svg>