<svg xmlns="http://www.w3.org/2000/svg" viewBox="0 0 19.824 17.246"><defs><style>.a{fill:#636363;}</style></defs><path class="a" d="M0,2.57V14.593a2.733,2.733,0,0,0,2.87,2.653H18.12a1.641,1.641,0,0,0,1.7-1.575V5.8a1.644,1.644,0,0,0-1.7-1.575H2.87A1.581,1.581,0,0,1,1.256,2.57,1.551,1.551,0,0,1,2.87,1.078H13.186a.5.5,0,0,1,.538.5V2.653a.5.5,0,0,0,.538.5.558.558,0,0,0,.538-.5V1.575A1.644,1.644,0,0,0,13.1,0H2.87A2.779,2.779,0,0,0,0,2.57Zm18.658,9.121h-2.6a1.124,1.124,0,0,1-1.166-1.244,1.145,1.145,0,0,1,1.166-1.078h2.6ZM1.166,4.726a2.916,2.916,0,0,0,1.7.5H18.12a.5.5,0,0,1,.538.5V8.209h-2.6a2.308,2.308,0,0,0-2.332,2.322,2.29,2.29,0,0,0,2.332,2.156h2.6v2.9a.5.5,0,0,1-.538.5H2.87a1.641,1.641,0,0,1-1.7-1.575V4.726Z"/></svg>