<svg xmlns="http://www.w3.org/2000/svg" viewBox="0 0 23.425 13.5"><defs><style>.a{fill:#636363;}</style></defs><g transform="translate(-0.025)"><path class="a" d="M23.3,6.5a17.215,17.215,0,0,0-3.4-3.2A13.3,13.3,0,0,0,11.7,0,13.744,13.744,0,0,0,3.5,3.2,20.5,20.5,0,0,0,.1,6.4a.854.854,0,0,0,0,.7,17.215,17.215,0,0,0,3.4,3.2,13.744,13.744,0,0,0,8.2,3.2,13.744,13.744,0,0,0,8.2-3.2,20.5,20.5,0,0,0,3.4-3.2C23.5,6.9,23.5,6.6,23.3,6.5ZM11.7,12.2A5.549,5.549,0,0,1,6.2,6.7a5.5,5.5,0,0,1,11,0A5.484,5.484,0,0,1,11.7,12.2ZM1.2,6.8A20.449,20.449,0,0,1,7.1,2.2a6.58,6.58,0,0,0,0,9.2A24.287,24.287,0,0,1,1.2,6.8Zm15.1,4.5a6.58,6.58,0,0,0,0-9.2,20.177,20.177,0,0,1,5.9,4.6A17.675,17.675,0,0,1,16.3,11.3Z"/><path class="a" d="M11.7,4.2A2.647,2.647,0,0,0,9.1,6.8a2.6,2.6,0,0,0,5.2,0h0A2.582,2.582,0,0,0,11.7,4.2Zm0,4.1a1.6,1.6,0,1,1,1.6-1.6h0a1.58,1.58,0,0,1-1.6,1.6Z"/></g></svg>