<svg xmlns="http://www.w3.org/2000/svg" viewBox="0 0 24.348 20"><defs><style>.a{fill:#626262;}</style></defs><path class="a" d="M23.044,0H1.3A1.281,1.281,0,0,0,0,1.3V18.7A1.281,1.281,0,0,0,1.3,20H23.044a1.281,1.281,0,0,0,1.3-1.3V1.3A1.281,1.281,0,0,0,23.044,0ZM1.3.87H23.044a.411.411,0,0,1,.435.435V8.391l-3.043,1.13V4.783A.411.411,0,0,0,20,4.348H4.348a.411.411,0,0,0-.435.435V9.522L.87,8.391V1.3A.411.411,0,0,1,1.3.87ZM19.565,9.826l-7.391,2.739L4.783,9.826V5.217H19.565Zm3.478,9.3H1.3A.411.411,0,0,1,.87,18.7V9.3l11.174,4.13c.13,0,.13.13.261,0L23.478,9.3V18.7A.411.411,0,0,1,23.044,19.131ZM17.391,8.261H8.7v-.87h8.7Zm0,1.739H6.957V9.13H17.391Z"/></svg>