<svg xmlns="http://www.w3.org/2000/svg" viewBox="0 0 93.327 106.328"><defs><style>.a{fill:#eee;}.b{fill:#444;}.c,.d{fill:none;stroke-miterlimit:10;}.c{stroke:#000;stroke-width:1.885px;}.d{stroke:#444;stroke-width:1.696px;}</style></defs><g transform="translate(-591 -791)"><rect class="a" width="69.744" height="7" transform="translate(601 792)"/><path class="a" d="M0,0H9V57L0,54.476Z" transform="translate(661.744 796)"/><g transform="translate(591 791)"><path class="b" d="M43.1,18.4H64a1,1,0,0,0,1-1,.945.945,0,0,0-1-1H43.1a1,1,0,0,0-1,1A1.156,1.156,0,0,0,43.1,18.4Z"/><path class="b" d="M43.1,23.9H64a1,1,0,0,0,1-1,.945.945,0,0,0-1-1H43.1a1,1,0,0,0-1,1A1.156,1.156,0,0,0,43.1,23.9Z"/><path class="b" d="M43.1,29.3H64a1,1,0,0,0,0-2H43.1a1,1,0,0,0-1,1h0C42.3,29,42.7,29.3,43.1,29.3Z"/><path class="b" d="M43.1,41.4H64a1,1,0,0,0,1-1,.945.945,0,0,0-1-1H43.1a1,1,0,0,0-1,1A1.156,1.156,0,0,0,43.1,41.4Z"/><path class="b" d="M43.1,48.1H64a1,1,0,0,0,1-1,.945.945,0,0,0-1-1H43.1a1,1,0,0,0-1,1A1.156,1.156,0,0,0,43.1,48.1Z"/><path class="b" d="M43.1,54.9H64a1,1,0,0,0,0-2H43.1a1,1,0,0,0-1,1h0C42.3,54.6,42.7,54.9,43.1,54.9Z"/><path class="b" d="M35,46.2H6.8a1,1,0,0,0,0,2H35a1,1,0,0,0,1-1A.945.945,0,0,0,35,46.2Z"/><path class="b" d="M35,53H6.8a1,1,0,0,0,0,2H35a1,1,0,0,0,0-2Z"/><path class="b" d="M35,59.8H6.8a1,1,0,0,0,0,2H35a1,1,0,0,0,1-1A.945.945,0,0,0,35,59.8Z"/><path class="b" d="M35,66.6H6.8a1,1,0,0,0,0,2H35a1,1,0,0,0,0-2Z"/><path class="b" d="M35,73.4H6.8a1,1,0,0,0,0,2H35a1,1,0,0,0,1-1A.945.945,0,0,0,35,73.4Z"/><path class="b" d="M21.1,42.7A13.436,13.436,0,1,0,7.5,29.3,13.507,13.507,0,0,0,21.1,42.7Zm0-25.2A11.7,11.7,0,1,1,9.4,29.2,11.715,11.715,0,0,1,21.1,17.5Z"/><path class="b" d="M47.7,89,8.9,94,46.8,80.1l.3-2.1L1.8,94.6V8.3h68V59.7a10.869,10.869,0,0,1,1.8.1V7.4a1,1,0,0,0-1-1H10.5V1.9h68V61.6l1.8.9V1a1,1,0,0,0-1-1H9.6a1,1,0,0,0-1,1V6.5H1a1,1,0,0,0-1,1V96.3a.265.265,0,0,0,.3.3l.1.1H.9l47.4-5.9Z"/><path class="b" d="M79.2,96.3l-5.1-7.4a9.949,9.949,0,0,0,2.6-13,9.6,9.6,0,0,0-8.4-4.7,10.3,10.3,0,0,0-5.1,1.4,9.8,9.8,0,0,0-4.4,6.1,10.06,10.06,0,0,0,1.1,7.4,9.6,9.6,0,0,0,8.4,4.7,10.434,10.434,0,0,0,4.3-1l5.1,7.4a.755.755,0,0,0,.7.4c.2,0,.3,0,.4-.1C79.3,97.2,79.5,96.7,79.2,96.3Zm-6.7-8.4h0a7.871,7.871,0,0,1-4.2,1.2,8.058,8.058,0,0,1-6.9-3.9,7.668,7.668,0,0,1-.9-6.1,8.238,8.238,0,0,1,7.9-6.2,8.062,8.062,0,0,1,4.1,15Z"/><path class="c" d="M12.4,39.1a8.5,8.5,0,0,1,17,0"/><path class="c" d="M25.8,26a4.9,4.9,0,1,1-4.9-4.9A4.908,4.908,0,0,1,25.8,26Z"/><circle class="d" cx="22.6" cy="22.6" r="22.6" transform="translate(46.143 60.273) rotate(-1.431)"/></g></g></svg>