<svg xmlns="http://www.w3.org/2000/svg" viewBox="0 0 137.5 103.3"><defs><style>.a{fill:#eee;}.b{fill:#fff;}.c{fill:#444;}</style></defs><g transform="translate(-242 -787)"><path class="a" d="M103.7,103.3h-70A33.794,33.794,0,0,1,22.1,37.8l.4-.1-.1-.4a22.2,22.2,0,0,1-.6-5.1A21.268,21.268,0,0,1,55.2,14.7l.4.3.3-.4A33.263,33.263,0,0,1,83.5,0,33.712,33.712,0,0,1,117,38.2v.3l.3.1a33.774,33.774,0,0,1-13.6,64.7Z" transform="translate(242 787)"/><rect class="b" width="21" height="53" transform="translate(264 835)"/><rect class="b" width="16" height="65" transform="translate(290 812)"/><path class="b" d="M0,0H24V27.675L0,35Z" transform="translate(342.306 855)"/><rect class="b" width="21" height="65" transform="translate(321 824)"/><rect class="b" width="21" height="25" transform="translate(277 864)"/><rect class="b" width="22" height="35" transform="translate(298 854)"/><g transform="translate(242 787)"><path class="c" d="M103.7,103.3h-70A33.794,33.794,0,0,1,22.1,37.8l.4-.1-.1-.4a22.2,22.2,0,0,1-.6-5.1A21.268,21.268,0,0,1,55.2,14.7l.4.3.3-.4A33.263,33.263,0,0,1,83.5,0,33.712,33.712,0,0,1,117,38.2v.3l.3.1a33.774,33.774,0,0,1-13.6,64.7ZM43.1,13.1A19.1,19.1,0,0,0,24,32.2a18.756,18.756,0,0,0,.6,4.6l.3,1.3a1.209,1.209,0,0,1-.7,1.3l-1.3.5a31.564,31.564,0,0,0,10.9,61.2h70a31.578,31.578,0,0,0,12.7-60.5l-1.1-.5a1.078,1.078,0,0,1-.6-1.1l.1-1.1a29.338,29.338,0,0,0,.3-4.1,31.553,31.553,0,0,0-57.5-18l-1,1.2a1.1,1.1,0,0,1-1.5.3l-1.3-.9A18.847,18.847,0,0,0,43.1,13.1Z"/><path class="c" d="M103.7,103.3h-70A33.794,33.794,0,0,1,22.1,37.8l.4-.1-.1-.4a22.2,22.2,0,0,1-.6-5.1A21.268,21.268,0,0,1,55.2,14.7l.4.3.3-.4A33.263,33.263,0,0,1,83.5,0,33.712,33.712,0,0,1,117,38.2v.3l.3.1a33.774,33.774,0,0,1-13.6,64.7ZM43.1,13.1A19.1,19.1,0,0,0,24,32.2a18.756,18.756,0,0,0,.6,4.6l.3,1.3a1.209,1.209,0,0,1-.7,1.3l-1.3.5a31.564,31.564,0,0,0,10.9,61.2h70a31.578,31.578,0,0,0,12.7-60.5l-1.1-.5a1.078,1.078,0,0,1-.6-1.1l.1-1.1a29.338,29.338,0,0,0,.3-4.1,31.553,31.553,0,0,0-57.5-18l-1,1.2a1.1,1.1,0,0,1-1.5.3l-1.3-.9A18.847,18.847,0,0,0,43.1,13.1Z"/><path class="c" d="M99.7,103.3h-21a1.11,1.11,0,0,1-1.1-1.1V36.7a1.11,1.11,0,0,1,1.1-1.1h21a1.11,1.11,0,0,1,1.1,1.1v65.4A1.135,1.135,0,0,1,99.7,103.3Zm-19.9-2.2H98.6V37.8H79.8Z"/><path class="c" d="M49.1,78.2H47V25a1.11,1.11,0,0,1,1.1-1.1H64.2A1.11,1.11,0,0,1,65.3,25V65.7H63.1V26h-14V78.2Z"/><path class="c" d="M22.4,100.1H20.2V47.5a1.11,1.11,0,0,1,1.1-1.1H43a1.11,1.11,0,0,1,1.1,1.1V77.6H41.9v-29H22.4Z"/><rect class="c" width="13.1" height="2.2" transform="translate(82.5 41.1)"/><rect class="c" width="13.1" height="2.2" transform="translate(82.5 47.3)"/><rect class="c" width="13.1" height="2.2" transform="translate(82.5 53.5)"/><rect class="c" width="13.1" height="2.2" transform="translate(82.5 59.6)"/><rect class="c" width="13.1" height="2.2" transform="translate(82.5 65.8)"/><rect class="c" width="13.1" height="2.2" transform="translate(82.5 72)"/><rect class="c" width="13.1" height="2.2" transform="translate(82.5 78.2)"/><rect class="c" width="13.1" height="2.2" transform="translate(82.5 84.3)"/><rect class="c" width="13.1" height="2.2" transform="translate(82.5 90.5)"/><rect class="c" width="13.1" height="2.2" transform="translate(82.5 96.7)"/><rect class="c" width="2.2" height="7" transform="translate(72.5 70)"/><rect class="c" width="2.2" height="7" transform="translate(66.5 70)"/><rect class="c" width="2.2" height="7" transform="translate(60.4 70)"/><rect class="c" width="2.2" height="7" transform="translate(72.5 80.1)"/><rect class="c" width="2.2" height="7" transform="translate(66.5 80.1)"/><rect class="c" width="2.2" height="7" transform="translate(60.4 80.1)"/><rect class="c" width="2.2" height="7" transform="translate(72.5 90.6)"/><rect class="c" width="2.2" height="7" transform="translate(66.5 90.6)"/><rect class="c" width="2.2" height="7" transform="translate(60.4 90.6)"/><g transform="translate(51.1 30.71)"><g transform="translate(7.8)"><rect class="c" width="2.2" height="4.5"/></g><g transform="translate(3.9)"><rect class="c" width="2.2" height="4.5"/></g><g transform="translate(0)"><rect class="c" width="2.2" height="4.5"/></g></g><g transform="translate(51.1 45.861)"><g transform="translate(7.8)"><rect class="c" width="2.2" height="4.5"/></g><g transform="translate(3.9)"><rect class="c" width="2.2" height="4.5"/></g><g transform="translate(0)"><rect class="c" width="2.2" height="4.5"/></g></g><g transform="translate(51.1 62.5)"><g transform="translate(7.8)"><rect class="c" width="2.2" height="4.5"/></g><g transform="translate(3.9)"><rect class="c" width="2.2" height="4.5"/></g><g transform="translate(0)"><rect class="c" width="2.2" height="4.5"/></g></g><path class="c" d="M51.7,103.3H45.8a1.11,1.11,0,0,1-1.1-1.1v-8a1.11,1.11,0,0,1,1.1-1.1h5.9a1.11,1.11,0,0,1,1.1,1.1v8A1.11,1.11,0,0,1,51.7,103.3Zm-4.8-2.2h3.7V95.3H46.9Z"/><rect class="c" width="13.1" height="2.2" transform="translate(39.8 81.4)"/><rect class="c" width="13.1" height="2.2" transform="translate(39.8 87.6)"/><rect class="c" width="3.2" height="2.2" transform="translate(39.8 93.8)"/><g transform="translate(0 -7)"><path class="c" d="M40.1,65.7H33.6V59.2h6.5Zm-4.6-1.9h2.6V61.2H35.5Z"/><path class="c" d="M31.2,65.7H24.7V59.2h6.5Zm-4.6-1.9h2.6V61.2H26.6Z"/></g><g transform="translate(0 -4)"><path class="c" d="M40.1,74.8H33.6V68.3h6.5Zm-4.6-1.9h2.6V70.3H35.5Z"/><path class="c" d="M31.2,74.8H24.7V68.3h6.5Zm-4.6-1.9h2.6V70.3H26.6Z"/></g><g transform="translate(0 -1)"><path class="c" d="M31.2,84.2H24.7V77.7h6.5Zm-4.6-1.9h2.6V79.7H26.6Z"/></g><path class="c" d="M31.2,94.2H24.7V87.7h6.5Zm-4.6-1.9h2.6V89.7H26.6Z"/><path class="c" d="M119,80.1h-6.2V73.9H119Zm-4.3-1.9h2.4V75.8h-2.4Z"/><path class="c" d="M110.7,80.1h-6.2V73.9h6.2Zm-4.4-1.9h2.4V75.8h-2.4Z"/><path class="c" d="M119,88.4h-6.2V82.2H119Zm-4.3-1.9h2.4V84.1h-2.4Z"/><path class="c" d="M110.7,88.4h-6.2V82.2h6.2Zm-4.4-1.9h2.4V84.1h-2.4Z"/><path class="c" d="M119,97h-6.2V90.8H119Zm-4.3-2h2.4V92.6h-2.4Z"/><path class="c" d="M110.7,97h-6.2V90.8h6.2Zm-4.4-2h2.4V92.6h-2.4Z"/><path class="c" d="M105.1,103.3H99.6a1.11,1.11,0,0,1-1.1-1.1v-34a1.11,1.11,0,0,1,1.1-1.1H124a1.11,1.11,0,0,1,1.1,1.1V95.1h-2.2V69.3H100.7v31.8h4.4Z"/><path class="c" d="M56.1,103.3H36.5a1.11,1.11,0,0,1-1.1-1.1V77.7a1.11,1.11,0,0,1,1.1-1.1H56.1a1.11,1.11,0,0,1,1.1,1.1v24.5A1.11,1.11,0,0,1,56.1,103.3Zm-18.5-2.2H55V78.8H37.6Z"/><path class="c" d="M78.7,103.3H56.1a1.11,1.11,0,0,1-1.1-1.1V66.6a1.11,1.11,0,0,1,1.1-1.1H78.7a1.11,1.11,0,0,1,1.1,1.1v35.6A1.11,1.11,0,0,1,78.7,103.3Zm-21.5-2.2H77.6V67.7H57.2Z"/></g></g></svg>