<svg xmlns="http://www.w3.org/2000/svg" viewBox="0 0 113.3 108.4"><defs><style>.a{fill:#eee;}.b{fill:#fff;}.c{fill:#444;}</style></defs><g transform="translate(-912 -791)"><ellipse class="a" cx="36.5" cy="37" rx="36.5" ry="37" transform="translate(951 824)"/><circle class="b" cx="9.5" cy="9.5" r="9.5" transform="translate(994 862)"/><g transform="translate(912 791)"><path class="c" d="M61.9,66.6h0a10.017,10.017,0,1,0-5.6,1.7A9.987,9.987,0,0,0,61.9,66.6ZM56.2,49.3a8.963,8.963,0,0,1,9,9,8.83,8.83,0,0,1-3.3,6.9V52.8a.472.472,0,0,0-.5-.5H50.7a.472.472,0,0,0-.5.5V65a8.972,8.972,0,0,1-3-6.7A9.092,9.092,0,0,1,56.2,49.3Zm-5,3.9H61V65.8a9.174,9.174,0,0,1-3.6,1.3V63.6a.215.215,0,0,0-.2-.2H55a.215.215,0,0,0-.2.2v3.5a8.333,8.333,0,0,1-3.5-1.4V53.2Zm4,10.7H57v3.4h-.7a3.4,3.4,0,0,1-1-.1V63.9Z"/><path class="c" d="M53.9,54.2H52.1a.265.265,0,0,0-.3.3v1.8a.265.265,0,0,0,.3.3h1.8a.265.265,0,0,0,.3-.3V54.5A.265.265,0,0,0,53.9,54.2ZM53.6,56H52.4V54.8h1.2Z"/><path class="c" d="M55.1,56.7H57a.265.265,0,0,0,.3-.3V54.6a.265.265,0,0,0-.3-.3H55.2a.265.265,0,0,0-.3.3v1.8C54.8,56.5,54.9,56.7,55.1,56.7Zm.3-1.9h1.2V56H55.4Z"/><path class="c" d="M58.2,56.7H60a.265.265,0,0,0,.3-.3V54.6a.265.265,0,0,0-.3-.3H58.2a.265.265,0,0,0-.3.3v1.8A.319.319,0,0,0,58.2,56.7Zm.3-1.9h1.2V56H58.5Z"/><path class="c" d="M53.9,60.3H52.1a.265.265,0,0,0-.3.3v1.8a.265.265,0,0,0,.3.3h1.8a.265.265,0,0,0,.3-.3V60.6A.319.319,0,0,0,53.9,60.3Zm-.3,1.9H52.4V61h1.2Z"/><path class="c" d="M55.1,62.8H57a.265.265,0,0,0,.3-.3V60.7a.265.265,0,0,0-.3-.3H55.2a.265.265,0,0,0-.3.3v1.8C54.8,62.6,54.9,62.8,55.1,62.8Zm.3-1.9h1.2v1.2H55.4Z"/><path class="c" d="M58.2,62.8H60a.265.265,0,0,0,.3-.3V60.7a.265.265,0,0,0-.3-.3H58.2a.265.265,0,0,0-.3.3v1.8A.319.319,0,0,0,58.2,62.8Zm.3-1.9h1.2v1.2H58.5Z"/><path class="c" d="M53.9,57.3H52.1a.265.265,0,0,0-.3.3v1.8a.265.265,0,0,0,.3.3h1.8a.265.265,0,0,0,.3-.3V57.6A.265.265,0,0,0,53.9,57.3Zm-.3,1.8H52.4V57.9h1.2Z"/><path class="c" d="M55.1,59.7H57a.265.265,0,0,0,.3-.3V57.6a.265.265,0,0,0-.3-.3H55.2a.265.265,0,0,0-.3.3v1.8C54.8,59.6,54.9,59.7,55.1,59.7Zm.3-1.8h1.2v1.2H55.4Z"/><path class="c" d="M58.2,59.7H60a.265.265,0,0,0,.3-.3V57.6a.265.265,0,0,0-.3-.3H58.2a.265.265,0,0,0-.3.3v1.8A.265.265,0,0,0,58.2,59.7Zm.3-1.8h1.2v1.2H58.5Z"/><path class="c" d="M53.9,63.4H52.1a.265.265,0,0,0-.3.3v1.8a.265.265,0,0,0,.3.3h1.8a.265.265,0,0,0,.3-.3V63.7A.265.265,0,0,0,53.9,63.4Zm-.3,1.8H52.4V64h1.2Z"/><path class="c" d="M58.2,65.8H60a.265.265,0,0,0,.3-.3V63.7a.265.265,0,0,0-.3-.3H58.2a.265.265,0,0,0-.3.3v1.8A.265.265,0,0,0,58.2,65.8Zm.3-1.8h1.2v1.2H58.5Z"/><path class="c" d="M45.2,46.9A48.672,48.672,0,0,0,42,51.6l1.8,1a35.2,35.2,0,0,1,3-4.5Z"/><path class="c" d="M112.8,64.1a38.213,38.213,0,0,0-1.4-5.6l-1.9.6a31.554,31.554,0,0,1,1.3,5.3Z"/><path class="c" d="M108.8,52.2a30.256,30.256,0,0,0-3.1-4.8l-1.6,1.2a27.414,27.414,0,0,1,2.9,4.6Z"/><path class="c" d="M37.8,63.4l2,.4a30.68,30.68,0,0,1,1.4-5.2l-1.9-.7A26.358,26.358,0,0,0,37.8,63.4Z"/><path class="c" d="M55.6,40.1l-1.1-1.7A30.194,30.194,0,0,0,50,41.9l1.3,1.5A28.75,28.75,0,0,1,55.6,40.1Z"/><path class="c" d="M101.1,42.3a39.431,39.431,0,0,0-4.5-3.6l-1.1,1.7a27.178,27.178,0,0,1,4.2,3.4Z"/><path class="c" d="M65.9,107.3a34.53,34.53,0,0,0,5.6,1l.2-2a45.068,45.068,0,0,1-5.3-.9Z"/><path class="c" d="M89.7,103.4l.8,1.9q2.55-1.2,5.1-2.7l-1.1-1.7C92.9,101.8,91.3,102.6,89.7,103.4Z"/><path class="c" d="M99.6,96.9l1.4,1.5a38.794,38.794,0,0,0,3.9-4.2l-1.6-1.3A27.862,27.862,0,0,1,99.6,96.9Z"/><path class="c" d="M45.2,93.7A51.36,51.36,0,0,0,49,97.9l1.4-1.5a34.229,34.229,0,0,1-3.6-4Z"/><path class="c" d="M78.2,106.3l.2,2a50.3,50.3,0,0,0,5.6-.9l-.5-2A45.069,45.069,0,0,1,78.2,106.3Z"/><path class="c" d="M106.9,87.5l1.8,1a34.291,34.291,0,0,0,2.3-5.2l-1.9-.7A30.623,30.623,0,0,1,106.9,87.5Z"/><path class="c" d="M111.3,70.9a32.873,32.873,0,0,1-.5,5.4l2,.3a36.573,36.573,0,0,0,.5-5.7Z"/><path class="c" d="M39.2,82.7A35.38,35.38,0,0,0,41.5,88l1.8-.9a31.149,31.149,0,0,1-2.1-5Z"/><path class="c" d="M78.3,34.4l.2-2a36.173,36.173,0,0,0-5.7-.1l.1,2A32.667,32.667,0,0,1,78.3,34.4Z"/><path class="c" d="M60.5,35.2l.8,1.9a33.9,33.9,0,0,1,5.1-1.7l-.5-2A28.524,28.524,0,0,0,60.5,35.2Z"/><path class="c" d="M90.6,35.5a34.607,34.607,0,0,0-5.4-1.9l-.5,2a43.984,43.984,0,0,1,5.1,1.8Z"/><path class="c" d="M76.2,70.4A38.076,38.076,0,1,0,18,38a38.057,38.057,0,0,0,20.1,70.4,38.973,38.973,0,0,0,18.6-4.8c.9.5,1.8,1,2.7,1.4l.8-1.8c-.5-.2-1-.5-1.6-.8A38.223,38.223,0,0,0,76.2,70.4ZM20,39.1A35.9,35.9,0,0,1,74,69.2a35.7,35.7,0,0,1-18,4.9A36.1,36.1,0,0,1,20,39.1ZM56.1,2a36.109,36.109,0,0,1,20,66.1,38.107,38.107,0,0,0-38-35.8,37.6,37.6,0,0,0-18,4.6A36.019,36.019,0,0,1,56.1,2Zm.6,99.2c-.4-.2-.8-.5-1.2-.7l-1.1,1.7a.31.31,0,0,0,.2.1,35.591,35.591,0,0,1-16.5,4A36.044,36.044,0,0,1,18,40.3,38.2,38.2,0,0,0,37.1,71.1a40.454,40.454,0,0,0,.4,4.9l2-.3a19.827,19.827,0,0,1-.3-3.5A38.063,38.063,0,0,0,56,76.1a37.6,37.6,0,0,0,18-4.6A35.6,35.6,0,0,1,56.7,101.2Z"/><path class="c" d="M91.8,70.3a9.9,9.9,0,0,0-10,10,10,10,0,1,0,10-10ZM86.4,87.2a5.229,5.229,0,0,1,5.3-5.1A5.335,5.335,0,0,1,97,87.4a8.844,8.844,0,0,1-5.2,1.8A9.852,9.852,0,0,1,86.4,87.2Zm5.3-6.8a2.7,2.7,0,1,1,2.7-2.7A2.689,2.689,0,0,1,91.7,80.4Zm6.7,5.5a7.147,7.147,0,0,0-4.1-5,4.22,4.22,0,0,0,1.6-3.3,4.3,4.3,0,0,0-8.6,0,4.22,4.22,0,0,0,1.6,3.3,6.735,6.735,0,0,0-4,4.8,8.693,8.693,0,1,1,15.5-5.4A7.873,7.873,0,0,1,98.4,85.9Z"/><path class="c" d="M22.5,70.3a9.9,9.9,0,0,0-10,10,10,10,0,1,0,10-10ZM17.1,87.2a5.229,5.229,0,0,1,5.3-5.1,5.335,5.335,0,0,1,5.3,5.3,8.844,8.844,0,0,1-5.2,1.8A10.151,10.151,0,0,1,17.1,87.2Zm5.3-6.8a2.7,2.7,0,1,1,2.7-2.7A2.689,2.689,0,0,1,22.4,80.4Zm6.7,5.5a7.147,7.147,0,0,0-4.1-5,4.22,4.22,0,0,0,1.6-3.3,4.3,4.3,0,1,0-8.6,0,4.22,4.22,0,0,0,1.6,3.3,6.735,6.735,0,0,0-4,4.8,8.693,8.693,0,1,1,15.5-5.4A7.873,7.873,0,0,1,29.1,85.9Z"/><path class="c" d="M56.5,28.6a10,10,0,0,0,0-20,9.9,9.9,0,0,0-10,10A9.9,9.9,0,0,0,56.5,28.6Zm-5.4-3.3a5.229,5.229,0,0,1,5.3-5.1,5.335,5.335,0,0,1,5.3,5.3,8.844,8.844,0,0,1-5.2,1.8A9.142,9.142,0,0,1,51.1,25.3Zm5.3-6.8a2.7,2.7,0,1,1,2.7-2.7A2.689,2.689,0,0,1,56.4,18.5Zm.1-8.6a8.706,8.706,0,0,1,8.7,8.7,9.1,9.1,0,0,1-2,5.6,7.147,7.147,0,0,0-4.1-5,4.22,4.22,0,0,0,1.6-3.3,4.3,4.3,0,1,0-8.6,0,4.22,4.22,0,0,0,1.6,3.3,6.735,6.735,0,0,0-4,4.8A8.68,8.68,0,0,1,56.5,9.9Z"/></g></g></svg>