<svg xmlns="http://www.w3.org/2000/svg" xmlns:xlink="http://www.w3.org/1999/xlink" viewBox="0 0 111.457 20.167"><defs><style>.a{fill:none;}.b{clip-path:url(#a);}.c{fill:#fff;}</style><clipPath id="a"><path class="a" d="M0-47.833H111.457v20.167H0Z" transform="translate(0 47.833)"/></clipPath></defs><g class="b"><g transform="translate(0 2.494)"><path class="c" d="M-4.926-18.356l-.221,1.866h-.8a2.443,2.443,0,0,1-1.926-.722,2.644,2.644,0,0,1-.642-1.826v-12.7H-6.23v11.675a8.489,8.489,0,0,0,.04.943,1.041,1.041,0,0,0,.171.511.577.577,0,0,0,.391.211,4.8,4.8,0,0,0,.7.04" transform="translate(8.517 31.736)"/></g><path class="c" d="M13.516-19.908H11.229v-9.97h2.287Z" transform="translate(-6.495 37.448)"/><g transform="translate(8.967 2.494)"><path class="c" d="M-6.385-9.357A2.176,2.176,0,0,0-8.21-8.5a3.815,3.815,0,0,0-.662,2.38,3.844,3.844,0,0,0,.662,2.41,2.186,2.186,0,0,0,1.826.85,2.307,2.307,0,0,0,1.916-.91,3.7,3.7,0,0,0,.712-2.35,3.7,3.7,0,0,0-.7-2.34,2.31,2.31,0,0,0-1.926-.9M-6.2-.932a3.843,3.843,0,0,1-2.648-.983l-.08.783h-2.106V-16.178h2.267v5.758A3.748,3.748,0,0,1-6.2-11.283a4.7,4.7,0,0,1,1.966.4,4.506,4.506,0,0,1,1.5,1.093,4.9,4.9,0,0,1,.963,1.645A6,6,0,0,1-1.43-6.107a6.07,6.07,0,0,1-.331,2.026,4.895,4.895,0,0,1-.953,1.645,4.44,4.44,0,0,1-1.5,1.1,4.753,4.753,0,0,1-1.986.4" transform="translate(11.039 16.178)"/></g><g transform="translate(19.92 7.349)"><path class="c" d="M-7.623,0l-.441,2.227h-.842a2.263,2.263,0,0,0-1.154.321,2.026,2.026,0,0,0-.792.762v6.881H-13.18V.221h2.147l.04,1.244A3.85,3.85,0,0,1-8.124,0Z" transform="translate(13.18 0)"/></g><g transform="translate(25.397 7.389)"><path class="c" d="M-6.66-2.642A2.284,2.284,0,0,0-9.067-.576h4.393A2.271,2.271,0,0,0-5.155-2.04a1.812,1.812,0,0,0-1.5-.6M-2.487.969h-6.68A3.179,3.179,0,0,0-8.074,3.161a3.336,3.336,0,0,0,2.116.7,6.728,6.728,0,0,0,3.009-.722l.161,1.886a7.5,7.5,0,0,1-3.33.762A6.251,6.251,0,0,1-8.4,5.392,4.784,4.784,0,0,1-10.1,4.3a4.72,4.72,0,0,1-1.053-1.645A5.733,5.733,0,0,1-11.514.587a5.978,5.978,0,0,1,.331-2.016,4.823,4.823,0,0,1,.963-1.635,4.548,4.548,0,0,1,1.515-1.1,4.8,4.8,0,0,1,2.006-.4,4.709,4.709,0,0,1,1.735.311,4.139,4.139,0,0,1,1.374.872A4.012,4.012,0,0,1-2.677-2.03,4.514,4.514,0,0,1-2.346-.275q0,.241-.03.552a6.374,6.374,0,0,1-.11.692" transform="translate(11.514 4.568)"/></g><g transform="translate(53.514 4.85)"><path class="c" d="M-6.992,0a4.841,4.841,0,0,0-3.622,1.527,5.135,5.135,0,0,0-1.475,3.7,5.133,5.133,0,0,0,1.475,3.7,4.839,4.839,0,0,0,3.622,1.527A4.839,4.839,0,0,0-3.371,8.935,5.133,5.133,0,0,0-1.9,5.231a5.136,5.136,0,0,0-1.476-3.7A4.841,4.841,0,0,0-6.992,0" transform="translate(12.089 0)"/></g><g transform="translate(69.651 5.18)"><path class="c" d="M-9.03-3.384a2.2,2.2,0,0,0-.764-1.94,5.081,5.081,0,0,0-2.724-.526h-3.1V-.691h3.034a4.458,4.458,0,0,0,2.806-.64A2.57,2.57,0,0,0-9.03-3.384" transform="translate(15.613 5.85)"/></g><g transform="translate(41.876 11.206)"><path class="c" d="M-4.812,0H-8.32V3.942H-4.5a4.063,4.063,0,0,0,2.053-.423,1.7,1.7,0,0,0,.712-1.6Q-1.737,0-4.812,0" transform="translate(8.32)"/></g><g transform="translate(36.796 0)"><path class="c" d="M-98.745-23.865h-10.38V-38.29h10.132V-36h-7.7v3.817h6.913v2.167h-6.913v3.859h7.945Zm-12.32,0H-113.5V-35.133l-5.035,10.009H-119.9l-5.015-10.009v11.267h-2.435V-38.29h3.8l4.354,9.059,4.354-9.059h3.776Zm-20.161,0-3.446-4.849h-3.2v4.849h-2.435V-38.29h5.365q3.3,0,4.726,1.114a4.255,4.255,0,0,1,1.424,3.57q0,3.571-3.116,4.5l3.776,5.241ZM-143.5-25.857a7.437,7.437,0,0,1-5.407,2.136,7.436,7.436,0,0,1-5.407-2.136,7.137,7.137,0,0,1-2.187-5.324,7.137,7.137,0,0,1,2.187-5.324,7.439,7.439,0,0,1,5.407-2.135A7.439,7.439,0,0,1-143.5-36.5a7.138,7.138,0,0,1,2.187,5.324,7.138,7.138,0,0,1-2.187,5.324m-14.094.65q-1.218,1.342-4.169,1.342h-6.314V-38.29h5.613a8.094,8.094,0,0,1,2.528.351,3.47,3.47,0,0,1,1.579.949,3.69,3.69,0,0,1,.99,2.518,2.975,2.975,0,0,1-1.073,2.517,4.61,4.61,0,0,1-.537.361q-.145.073-.516.237a3.785,3.785,0,0,1,2.136,1.207,3.364,3.364,0,0,1,.794,2.28,3.878,3.878,0,0,1-1.032,2.662m-13.127,4.112h74.661V-41.262h-74.661Zm0-20.167" transform="translate(170.725 41.262)"/></g><g transform="translate(41.876 5.221)"><path class="c" d="M-7.87-2.661a1.7,1.7,0,0,0-.64-1.486A3.457,3.457,0,0,0-10.49-4.6h-3.116V-.866h3.1q2.642,0,2.641-1.8" transform="translate(13.606 4.601)"/></g><g transform="translate(4.6 2.547)"><path class="c" d="M0-1.759A1.282,1.282,0,0,0,1.283-.477,1.282,1.282,0,0,0,2.565-1.759,1.282,1.282,0,0,0,1.283-3.042,1.282,1.282,0,0,0,0-1.759" transform="translate(0 3.042)"/></g></g></svg>