<svg xmlns="http://www.w3.org/2000/svg" xmlns:xlink="http://www.w3.org/1999/xlink" viewBox="0 0 332.694 60.197"><defs><style>.a{fill:none;}.b{fill:#b9021d;}.c{clip-path:url(#a);}.d{fill:#222;}.e{fill:#fff;}</style><clipPath id="a"><path class="a" d="M0-47.833H332.693v60.2H0Z" transform="translate(0 47.833)"/></clipPath></defs><g transform="translate(0 0)"><path class="b" d="M87.276,12.364H310.134v-60.2H87.276Z" transform="translate(22.56 47.833)"/><g class="c"><g transform="translate(0 7.446)"><path class="d" d="M2.2,8.2l-.658,5.569h-2.4q-3.832,0-5.748-2.156A7.892,7.892,0,0,1-8.517,6.167v-37.9h6.826V3.114a25.338,25.338,0,0,0,.12,2.814,3.109,3.109,0,0,0,.51,1.527,1.723,1.723,0,0,0,1.168.629,14.336,14.336,0,0,0,2.1.12" transform="translate(8.517 31.736)"/></g><path class="d" d="M18.055-.118H11.229v-29.76h6.826Z" transform="translate(2.903 52.474)"/><g transform="translate(26.765 7.445)"><path class="d" d="M2.853,4.182A6.5,6.5,0,0,0-2.6,6.749a11.386,11.386,0,0,0-1.976,7.1q0,4.655,1.976,7.194a6.525,6.525,0,0,0,5.449,2.537,6.886,6.886,0,0,0,5.719-2.716A11.056,11.056,0,0,0,10.7,13.852,11.032,11.032,0,0,0,8.6,6.868,6.9,6.9,0,0,0,2.853,4.182M3.392,29.33a11.471,11.471,0,0,1-7.9-2.934l-.239,2.336h-6.287V-16.178h6.767V1.009A11.188,11.188,0,0,1,3.392-1.567,14.029,14.029,0,0,1,9.26-.369a13.45,13.45,0,0,1,4.492,3.263,14.641,14.641,0,0,1,2.873,4.911,17.908,17.908,0,0,1,1.018,6.077,18.119,18.119,0,0,1-.988,6.048,14.611,14.611,0,0,1-2.844,4.909,13.253,13.253,0,0,1-4.49,3.293,14.188,14.188,0,0,1-5.929,1.2" transform="translate(11.039 16.178)"/></g><g transform="translate(59.459 21.936)"><path class="d" d="M3.407,0,2.089,6.646H-.425a6.755,6.755,0,0,0-3.443.959A6.047,6.047,0,0,0-6.233,9.88V30.419H-13.18V.658h6.408l.118,3.714Q-2.7,0,1.911,0Z" transform="translate(13.18)"/></g><g transform="translate(75.807 22.056)"><path class="d" d="M2.976,1.181q-5.869,0-7.186,6.167H8.9A6.78,6.78,0,0,0,7.468,2.977a5.41,5.41,0,0,0-4.492-1.8M15.432,11.959H-4.509q.6,4.461,3.265,6.543a9.957,9.957,0,0,0,6.316,2.08,20.083,20.083,0,0,0,8.982-2.156l.479,5.629a22.389,22.389,0,0,1-9.94,2.274,18.659,18.659,0,0,1-6.826-1.167A14.279,14.279,0,0,1-7.293,21.9a14.088,14.088,0,0,1-3.144-4.909,17.114,17.114,0,0,1-1.077-6.169A17.844,17.844,0,0,1-10.526,4.8,14.4,14.4,0,0,1-7.653-.076,13.577,13.577,0,0,1-3.131-3.37a14.322,14.322,0,0,1,5.988-1.2,14.058,14.058,0,0,1,5.18.929,12.355,12.355,0,0,1,4.1,2.6,11.976,11.976,0,0,1,2.725,4.042,13.475,13.475,0,0,1,.988,5.239q0,.719-.091,1.647a19.026,19.026,0,0,1-.328,2.065" transform="translate(11.514 4.568)"/></g><g transform="translate(117.727 8.872)"><path class="e" d="M1.493,7.464h11.4A12.134,12.134,0,0,0,19.018,6.2q2.126-1.263,2.124-4.775,0-5.727-9.177-5.729H1.493Zm0-18.48h9.24q7.883,0,7.883-5.357a5.064,5.064,0,0,0-1.909-4.436q-1.91-1.354-5.912-1.354h-9.3ZM13.072,14.179H-5.776V-28.877H10.978a24.165,24.165,0,0,1,7.546,1.047A10.36,10.36,0,0,1,23.236-25a11.01,11.01,0,0,1,2.957,7.516q0,5.052-3.2,7.513a13.873,13.873,0,0,1-1.6,1.079c-.288.145-.8.381-1.54.709a11.283,11.283,0,0,1,6.376,3.6A10.037,10.037,0,0,1,28.6,2.229a11.579,11.579,0,0,1-3.081,7.945q-3.634,4.006-12.443,4" transform="translate(5.776 28.877)"/></g><g transform="translate(152.283 7.825)"><path class="e" d="M6.876,2.3A14.451,14.451,0,0,0-3.934-2.256,14.445,14.445,0,0,0-14.743,2.3a15.324,15.324,0,0,0-4.4,11.057,15.317,15.317,0,0,0,4.4,11.056A14.44,14.44,0,0,0-3.934,28.974a14.447,14.447,0,0,0,10.81-4.558,15.323,15.323,0,0,0,4.4-11.056A15.33,15.33,0,0,0,6.876,2.3M12.2,29.25A22.2,22.2,0,0,1-3.934,35.626,22.193,22.193,0,0,1-20.072,29.25,21.3,21.3,0,0,1-26.6,13.36,21.3,21.3,0,0,1-20.072-2.533,22.2,22.2,0,0,1-3.934-8.907,22.2,22.2,0,0,1,12.2-2.533,21.308,21.308,0,0,1,18.734,13.36,21.308,21.308,0,0,1,12.2,29.25" transform="translate(26.601 8.907)"/></g><g transform="translate(200.636 8.872)"><path class="e" d="M5.073,4.124Q7.292,2.216,7.291-2T5.012-7.795Q2.731-9.366-3.119-9.366h-9.239v15.4H-3.3q6.158,0,8.377-1.91m9.67-6.1q0,10.658-9.3,13.428L16.714,27.1H7.476L-2.811,12.625h-9.547V27.1h-7.269V-15.955H-3.611q9.854,0,14.105,3.325t4.25,10.657" transform="translate(19.627 15.955)"/></g><g transform="translate(239.318 8.872)"><path class="e" d="M1.493,8.844H-5.776V-34.212H5.558l13,27.04,13-27.04H42.824V8.844H35.555V-24.788L20.526,5.087H16.462L1.493-24.788Z" transform="translate(5.776 34.212)"/></g><g transform="translate(293.707 8.872)"><path class="e" d="M6.212,0V6.837H-16.763V18.232H3.871V24.7H-16.763V36.218H6.951v6.837H-24.032V0Z" transform="translate(24.032)"/></g><g transform="translate(13.731 7.603)"><path class="d" d="M0,.786A3.828,3.828,0,1,0,3.828-3.042,3.827,3.827,0,0,0,0,.786" transform="translate(0 3.042)"/></g></g></g></svg>