<svg id="Layer_1" data-name="Layer 1" xmlns="http://www.w3.org/2000/svg" viewBox="0 0 195.17 60"><defs><style>.cls-1{fill:#a01626;}.cls-2{fill:#fff;}</style></defs><title>LOGO</title><rect class="cls-1" x="71.84" y="4.91" width="121" height="51" rx="11" ry="11"/><path d="M9,48.59H3V14.82H9Z"/><path d="M17.93,48.59H11.86V25.06h6.07ZM16.74,17.48A2.68,2.68,0,1,1,13,21.28a2.68,2.68,0,0,1,0-3.8,2.64,2.64,0,0,1,3.77,0Z"/><path d="M26.34,48.62H20.27V14.84h6.07v11.3a4.1,4.1,0,0,1,3.33-1.57,4.75,4.75,0,0,1,3.63,1.64,7.07,7.07,0,0,1,1.64,4.92V42.48c0,3.17-1.08,5.23-3.26,6.18a4.2,4.2,0,0,1-2.81.26,4.69,4.69,0,0,1-2.53-1.64Zm0-6a10.09,10.09,0,0,0,.21,2.53,1.08,1.08,0,0,0,2.11,0,10.57,10.57,0,0,0,.21-2.62V31.2a10.57,10.57,0,0,0-.21-2.62,1.08,1.08,0,0,0-2.11,0,10,10,0,0,0-.21,2.53Z"/><path d="M43.36,48.59H37.29V25.06h6.07v1.17a4.51,4.51,0,0,1,2.53-1.71,4.09,4.09,0,0,1,2.81.26Q52,26.28,52,31.18v7.17H45.89V31.18a10.66,10.66,0,0,0-.21-2.63,1.05,1.05,0,0,0-1.06-.86,1,1,0,0,0-1,.82A10,10,0,0,0,43.36,31Z"/><path d="M54,31.34a6.64,6.64,0,0,1,1.33-4.4q1.88-2.24,6-2.23t6,2.23a6.65,6.65,0,0,1,1.34,4.4v7.17h-8.6v4.11a10.57,10.57,0,0,0,.21,2.62,1.07,1.07,0,0,0,2.11,0,10.82,10.82,0,0,0,.21-2.64v-3h6.07v3A6.65,6.65,0,0,1,67.33,47q-1.87,2.25-6,2.25t-6-2.25A6.64,6.64,0,0,1,54,42.62Zm6.07,4.13H62.6V31.34a10.57,10.57,0,0,0-.21-2.62,1.07,1.07,0,0,0-2.11,0,10.57,10.57,0,0,0-.21,2.62Z"/><path class="cls-2" d="M94.24,32.7a8.25,8.25,0,0,1,1.43,5.13v3.1q0,7.66-7.81,7.66H80V14.82h7.82q7.81,0,7.81,7.64v1a8.21,8.21,0,0,1-1.43,5.13,5.89,5.89,0,0,1-3,2A6.15,6.15,0,0,1,94.24,32.7ZM86.11,17.84v11.3c1.5,0,2.47-.31,2.9-.91a7.52,7.52,0,0,0,.59-3.71V22.46q0-4.62-1.74-4.62Zm0,27.71h1.75q1.74,0,1.74-4.62v-4.1A7.41,7.41,0,0,0,89,33.15c-.43-.64-1.4-1-2.9-1Z"/><path class="cls-2" d="M113.65,41.58q0,7.7-7.81,7.69T98,41.58V22.06q0-7.66,7.83-7.66t7.81,7.66Zm-6.07-19.52a11.24,11.24,0,0,0-.36-3.4,1.43,1.43,0,0,0-1.38-1.15,1.46,1.46,0,0,0-1.41,1.15,11.66,11.66,0,0,0-.35,3.4V41.58a12,12,0,0,0,.35,3.43,1.46,1.46,0,0,0,1.41,1.15A1.43,1.43,0,0,0,107.22,45a11.42,11.42,0,0,0,.36-3.43Z"/><path class="cls-2" d="M122.06,48.59H116V14.82h7.83q7.8,0,7.8,7.64v2.06a8.2,8.2,0,0,1-1.43,5.14,6.17,6.17,0,0,1-3,2,6.25,6.25,0,0,1,3,2,8.2,8.2,0,0,1,1.43,5.14v9.72h-6.07V37.83a7.47,7.47,0,0,0-.58-3.67c-.44-.63-1.41-.94-2.91-.94Zm0-30.75V30.17c1.5,0,2.47-.3,2.91-.91a7.56,7.56,0,0,0,.58-3.71V22.46q0-4.62-1.73-4.62Z"/><path class="cls-2" d="M134.13,46.58a2.68,2.68,0,0,1,.93-2,3.39,3.39,0,0,1,4.21-.26A2.1,2.1,0,0,1,140,46a2.73,2.73,0,0,1-.9,2.11,3.28,3.28,0,0,1-2.31.82,2.77,2.77,0,0,1-1.92-.64A2.15,2.15,0,0,1,134.13,46.58Z"/><path class="cls-2" d="M171.62,45.7l-.18.27-.23.07a.62.62,0,0,1-.23.51c-.15.12-.22.22-.22.28v.07l-.1.07a1.4,1.4,0,0,1-.68.58l-.3,0,0,.35a1.86,1.86,0,0,1-.32.26L168.9,48a1.39,1.39,0,0,1-.75.22,8.87,8.87,0,0,1-1.13-.15.29.29,0,0,0-.23-.16.6.6,0,0,0-.28.09,1.08,1.08,0,0,0-.53-.46l.07-.25a.66.66,0,0,1-.39-.68l0-.3-.4-.31-.22-1-.3-.54v-.24l-.23-1.09,0-.43-.24-1.2,0-.51.07-1-.13-1.33-.45.48-.72,1.25-.3.71a2,2,0,0,0-.84,1.1c-.23,0-.35.25-.35.74a3.27,3.27,0,0,0-.35.48c-.1.17-.18.31-.24.4a.93.93,0,0,0-.09.17V44a2.28,2.28,0,0,0-.72,1.15,3.11,3.11,0,0,0-.33.51,7,7,0,0,1-.88,1.17,1,1,0,0,0-.51.61.59.59,0,0,1-.36.38.32.32,0,0,0-.22.35v.15a3.25,3.25,0,0,0-1,.33c-.19,0-.33-.15-.41-.4l-.07-.48-.2-.41V47l-.28-1.13a.8.8,0,0,0,0-.23,1,1,0,0,0-.16-.45L155.9,44l-.13-.25.13-.54-.06-.3v-.23l-.14-.32.23-.5-.16-1.06.07-.3.09-1.26-.23-.78.07-.62-.17-.48q-.32-.78-.39-1c-.05-.16-.12-.24-.22-.24a.21.21,0,0,0-.13,0,3.5,3.5,0,0,0-.85.48l-.48.65-.42.41-.91,1.25-.07.38-.54.61-.24.65a1.32,1.32,0,0,0-.32.58c-.08.27-.18.42-.28.45a1.57,1.57,0,0,0-.43.25l0,.61a4.17,4.17,0,0,0-.3.53,1.6,1.6,0,0,1-.36.52,1.24,1.24,0,0,0-.32.7c-.25,0-.38.15-.38.46s-.19.35-.37.35a1.43,1.43,0,0,0-.13.48v.1c-.28.23-.41.38-.41.43a.33.33,0,0,0,.1.22,1.23,1.23,0,0,0-.6.63,1.83,1.83,0,0,1-.35.55v.15a.42.42,0,0,1-.13.33c-.09.07-.24.21-.46.42a.9.9,0,0,1-.54.33q-.25,0-.36-.78a.53.53,0,0,0,0-.2.56.56,0,0,0-.23-.45v-.48a1.12,1.12,0,0,1,.13-.53l-.17-.75,0-.55,0-.58v-.13a.79.79,0,0,1,.17-.55l.07-.27c0-.09,0-.26-.05-.51a3.82,3.82,0,0,1,0-.45v-.55a1.18,1.18,0,0,1,.29-.53l-.26-.35a.2.2,0,0,0,.08-.24.59.59,0,0,1-.05-.19,1,1,0,0,1,.18-.41,1.7,1.7,0,0,0,.22-.59l-.23-.64.1-.33-.2-1.17.1-.46-.2-.93.07-.62-.24-.53c.24-.53.46-.79.68-.78l.14.07.1.46a.52.52,0,0,1,.43.55l-.07.72c0,.14.09.23.28.26a1.53,1.53,0,0,0-.31.72V37l.18,1.73L146.79,40l-.14.37.14.41-.1.17.15.25a.51.51,0,0,0-.25.43l.06.28a.47.47,0,0,1-.19.4l.13,1-.13.35a1.1,1.1,0,0,0-.1.61,1.84,1.84,0,0,1,.06.36.48.48,0,0,1-.06.29,2.18,2.18,0,0,1,.16.36.62.62,0,0,1-.16.35l.33.23.65-.84.13-.48a.86.86,0,0,0,.3-.3,1.4,1.4,0,0,0,.16-.4,2.57,2.57,0,0,1,.4-.7s.11,0,.21-.17.21-.27.35-.48a4.52,4.52,0,0,1,.49-.61,1.26,1.26,0,0,1,.15-.34,2.71,2.71,0,0,1,.22-.29,2.35,2.35,0,0,0,.27-.68l.39-.68.05-.25a1.68,1.68,0,0,1,.33-.45l.63-.66c.08,0,.21-.2.4-.6a3,3,0,0,1,.63-.92,1,1,0,0,0,.36-.56.3.3,0,0,0,.3-.32.59.59,0,0,0,.42-.46l.1,0c.11,0,.24-.21.38-.64.33-.3.57-.45.71-.45s.29.06.82.2a.57.57,0,0,1,.06.21.53.53,0,0,1-.06.2l.23.07a2.53,2.53,0,0,0,.48.84v.55l.3.35v.43a3.45,3.45,0,0,1,.38,1.33l-.13.55.13.48-.31.37.18,1.06a2.47,2.47,0,0,0-.12.81l.12.91-.08.3.08.35-.12.14a8.08,8.08,0,0,1,.25,1.84l-.07.26-.14.14a1.38,1.38,0,0,1,.24.78l.59.18L159.11,45a3.1,3.1,0,0,0,.3-.57,7.59,7.59,0,0,1,.38-.76c.12,0,.2-.16.25-.49s.18-.51.39-.55a.75.75,0,0,1,.07-.36,2.54,2.54,0,0,1,.58-.44v-.07c0-.31.22-.63.65-1a3.35,3.35,0,0,1,.43-.94,3.55,3.55,0,0,0,.6-.73l.35-.67a2.89,2.89,0,0,0,.31-.78c.37-.13.67-.57.92-1.33.25-.06.42-.3.51-.71l.55-.25.46.25-.16.17.23.23c-.18.06-.27.15-.27.25a.26.26,0,0,0,.17.23l-.23.45-.2,1.56a.57.57,0,0,1,.23.23,2.07,2.07,0,0,0-.27,1.16l0,.62-.07.23.1.45a1,1,0,0,1-.12.14.26.26,0,0,0-.09.19.61.61,0,0,0,.11.3c.13,0,.2.19.2.45a.29.29,0,0,1-.1.2.29.29,0,0,1,.07.18.68.68,0,0,1-.1.2,3.5,3.5,0,0,0,.31,1.38,5.73,5.73,0,0,1,.27,1.21l.43.23.17.75a1,1,0,0,1,.48.45l.41.16.5.1a1.62,1.62,0,0,0,.38.07,1.33,1.33,0,0,0,.48-.12,3.2,3.2,0,0,0,.49-.24,4.34,4.34,0,0,1,.63-.32,6,6,0,0,0,.51-.82l.45-.2.2-.34.46,0A1.3,1.3,0,0,0,171.62,45.7Z"/><path class="cls-2" d="M183.06,45.54a1.18,1.18,0,0,1,.25.56,1.44,1.44,0,0,1-.31.57,3.57,3.57,0,0,0-.47.91l-.25,0-.36.72-.42.06-.91.62-.17.36-.28,0-.3.35h-.48l-.1.16-.23,0a.83.83,0,0,0-.65.33l-.22-.16a1.38,1.38,0,0,1-.56.16A1,1,0,0,1,177,50a2.72,2.72,0,0,1-.45,0l-.2-.17a1.48,1.48,0,0,1-1.23-.51v-.42l-.55-.29-.13-.35a1.4,1.4,0,0,0-.37-.43v-.27L173.68,46l.07-1.15.13-.64v-.72l.18-.61L174,42.4a.63.63,0,0,0,.23-.37,2,2,0,0,1,.2-.51,6.79,6.79,0,0,1-.13-.85l.3-.25-.3-.33a1.49,1.49,0,0,0,.23-.48l-.17-1a3,3,0,0,1,.1-.72.56.56,0,0,0,.45.3,3.57,3.57,0,0,0,.65-.13.79.79,0,0,1,0-.23.52.52,0,0,1,.27-.42,6.59,6.59,0,0,1,.75-1.56.81.81,0,0,0,.31-.68H177l.16-.33.2-.08a1.35,1.35,0,0,1,.35-.5,2.27,2.27,0,0,0,.92-.78.78.78,0,0,0,.28,0s.12-.13.26-.38l.62-.2a.41.41,0,0,1,.3.2l.31-.07.17.14h.2a.69.69,0,0,0,.68.54h.1a.5.5,0,0,0,.21.35l-.15.07c.39.19.59.62.59,1.31l-.1.38.1.95-.17.15-.38,1-.68.85,0,.48a10.08,10.08,0,0,1-2,1.36c0,.13-.11.2-.21.2a.87.87,0,0,1-.27-.07l-.75.52h-.45l-.64.3-.29-.17a2.57,2.57,0,0,0-.69-.13,1.59,1.59,0,0,0-.52,1.24l-.23.29a3.36,3.36,0,0,1-.17.88l-.18.09.18,1.23-.18.17,0,.38,0,.47c0,.07,0,.28.08.63s.15.54.27.59c-.06.16.05.35.32.57a2.41,2.41,0,0,0,.88.46v.2l.88.14,1.26.06.84-.1a4.71,4.71,0,0,1,.75-.45l.27-.39h.31l0-.17a3.24,3.24,0,0,0,.8-.34.29.29,0,0,0,.08-.17.3.3,0,0,1,.29-.2l.1-.22a1.1,1.1,0,0,0,.93-1A.62.62,0,0,1,183.06,45.54Zm-2.79-7.76c.09,0,.24-.14.45-.41l.1-.4a5.69,5.69,0,0,0,.48-.89,1.26,1.26,0,0,0,.07-.47,4.11,4.11,0,0,0-.23-1l-.68-.23a1.66,1.66,0,0,1-.35.07l-.2-.07c-.17,0-.28.1-.35.3a2.66,2.66,0,0,0-.91.25l-.1.23a.35.35,0,0,0-.14,0,.15.15,0,0,0-.09,0,.12.12,0,0,0-.07.05.23.23,0,0,0-.07.07.54.54,0,0,0-.06.11,1.21,1.21,0,0,1-.05.14l0,.15a1,1,0,0,1-.2.29l-.25.3-.48.91-.25.22a.78.78,0,0,0-.19.43,7,7,0,0,1-.89,1.59l.23.13.12.29.56.16a2.87,2.87,0,0,1,1-.45l.1-.19a1,1,0,0,0,.26.06.39.39,0,0,0,.32-.2l.4-.06.25-.42h.23l.17-.36a1.16,1.16,0,0,0,.84-.42Z"/></svg>