<svg xmlns="http://www.w3.org/2000/svg" xmlns:xlink="http://www.w3.org/1999/xlink" viewBox="0 0 18.307 17.986"><defs><style>.a{fill:none;}.b{clip-path:url(#a);}.c{fill:#fff;}</style><clipPath id="a"><path class="a" d="M0-47.691H18.307v17.986H0Z" transform="translate(0 47.691)"/></clipPath></defs><g class="b" transform="translate(0)"><g transform="translate(0 0)"><path class="c" d="M-11.616-20.741a5.531,5.531,0,0,1-5.525-5.525,5.531,5.531,0,0,1,5.525-5.525,5.531,5.531,0,0,1,5.525,5.525,5.531,5.531,0,0,1-5.525,5.525m5.725-1.454a6.986,6.986,0,0,0,1.309-4.071A7.041,7.041,0,0,0-11.616-33.3a7.041,7.041,0,0,0-7.033,7.033,7.041,7.041,0,0,0,7.033,7.033,7,7,0,0,0,4.438-1.583l5.226,5.226a.94.94,0,0,0,.667.276.94.94,0,0,0,.667-.276.943.943,0,0,0,0-1.333Z" transform="translate(18.649 33.299)"/></g></g></svg>